#!OML:ASF H:\Terrain\Patient Classification 1\Walking\liu\liu.ASF
:FULLY-SPECIFIED
:DEGREES
111
root 8.73244 15.5886 -12.4272 7.55321 5.59044 7.27062
lowerback -4.40549 -5.26855 -9.05113
upperback 0.199038 -6.56781 0.76661
thorax 3.78601 -3.44689 5.28412
lowerneck -20.7626 -1.93063 -12.373
upperneck 18.7148 -1.85132 13.2227
head 9.57303 -0.258354 6.51482
rclavicle 9.66093e-014 -9.93923e-015
rhumerus -53.3149 1.9992 -74.0848
rradius 26.9708
rwrist -14.7301
rhand -28.6337 -24.503
rfingers 7.12502
rthumb -1.99796 -54.4734
lclavicle 9.66093e-014 -9.93923e-015
lhumerus -12.8081 -21.1498 83.5905
lradius 40.8307
lwrist 7.65813
lhand -12.4046 -27.7392
lfingers 7.12502
lthumb 13.6671 1.79211
rfemur -50.0207 0.730161 11.1438
rtibia 42.0157
rfoot -5.35629 -1.96772
rtoes -24.0093
lfemur 27.0876 5.07814 -24.5342
ltibia 7.31528e-014
lfoot -6.11578 -0.362951
ltoes -22.44
112
root 8.70607 15.5654 -12.1819 7.21105 5.19638 6.96544
lowerback -4.19941 -5.19121 -8.89822
upperback 0.216503 -6.49615 0.863019
thorax 3.67082 -3.40661 5.3272
lowerneck -21.1992 -1.83301 -12.1514
upperneck 19.0699 -1.72111 13.0398
head 9.75404 -0.191942 6.45074
rclavicle -4.76586e-014 1.11319e-014
rhumerus -52.7819 1.47488 -73.5933
rradius 26.2195
rwrist -13.4859
rhand -28.0424 -24.329
rfingers 7.12502
rthumb -1.42683 -54.304
lclavicle -4.76586e-014 1.11319e-014
lhumerus -13.7998 -20.6064 84.0898
lradius 40.8808
lwrist 7.48106
lhand -12.3702 -28.0975
lfingers 7.12502
lthumb 13.7002 1.43154
rfemur -49.8776 0.905877 11.8596
rtibia 43.6953
rfoot -4.97856 -1.29671
rtoes -21.0529
lfemur 28.1043 5.68046 -23.8577
ltibia -4.77083e-014
lfoot -3.60977 0.15434
ltoes -24.389
113
root 8.68182 15.5567 -11.9364 6.85458 4.74212 6.74889
lowerback -4.09159 -4.97979 -8.73791
upperback 0.270787 -6.23187 0.890595
thorax 3.60965 -3.27249 5.30415
lowerneck -21.0891 -1.89737 -12.0922
upperneck 18.897 -1.78594 12.8554
head 9.68063 -0.240095 6.35208
rclavicle 5.61567e-015 -2.78299e-015
rhumerus -52.3171 0.906302 -73.1782
rradius 25.5718
rwrist -12.4806
rhand -26.6767 -25.731
rfingers 7.12502
rthumb -0.107825 -55.7107
lclavicle 5.61567e-015 -2.78299e-015
lhumerus -14.7318 -21.0265 84.6105
lradius 40.9913
lwrist 8.06004
lhand -12.135 -27.9496
lfingers 7.12502
lthumb 13.9269 1.56399
rfemur -49.7504 0.949195 12.5976
rtibia 45.2734
rfoot -5.02066 -0.798355
rtoes -17.8174
lfemur 29.1489 6.33029 -23.2971
ltibia -5.08889e-014
lfoot -0.567151 0.975744
ltoes -25.3449
114
root 8.65814 15.5598 -11.6958 6.74267 4.61991 6.55183
lowerback -4.13121 -4.92844 -8.55934
upperback 0.25105 -6.17109 0.941285
thorax 3.58767 -3.23822 5.26295
lowerneck -20.9994 -1.90965 -11.9642
upperneck 18.7882 -1.79181 12.6238
head 9.62366 -0.260854 6.23588
rclavicle 2.54941e-014 7.95139e-015
rhumerus -51.9479 0.754028 -73.148
rradius 25.2794
rwrist -11.9513
rhand -24.9939 -28.8802
rfingers 7.12502
rthumb 1.51744 -58.8546
lclavicle 2.54941e-014 7.95139e-015
lhumerus -15.7634 -21.1115 85.1672
lradius 41.0263
lwrist 8.60451
lhand -11.9823 -27.5433
lfingers 7.12502
lthumb 14.0741 1.96009
rfemur -49.5774 0.668754 13.313
rtibia 46.6696
rfoot -5.37444 -0.16647
rtoes -15.0589
lfemur 29.8929 6.64461 -22.7796
ltibia -1.90833e-014
lfoot 2.97564 1.89213
ltoes -24.7159
115
root 8.63643 15.5621 -11.4556 6.67901 4.60878 6.07695
lowerback -4.23013 -4.98453 -8.13885
upperback 0.215509 -6.26525 1.10899
thorax 3.59385 -3.27881 5.18903
lowerneck -21.211 -1.814 -11.7374
upperneck 18.9676 -1.67077 12.409
head 9.7038 -0.207423 6.14508
rclavicle -4.4975e-014 8.74653e-015
rhumerus -51.4342 0.720332 -73.1842
rradius 24.9811
rwrist -11.2705
rhand -25.4999 -29.2909
rfingers 7.12502
rthumb 1.02873 -59.2682
lclavicle -4.4975e-014 8.74653e-015
lhumerus -16.7659 -20.6677 85.6624
lradius 40.8695
lwrist 8.70698
lhand -11.9669 -27.5523
lfingers 7.12502
lthumb 14.0889 1.95006
rfemur -49.1398 0.477056 14.2717
rtibia 47.8156
rfoot -5.79989 0.611797
rtoes -12.9186
lfemur 30.5639 6.87124 -21.9747
ltibia -4.77083e-014
lfoot 6.47056 2.94186
ltoes -22.3803
116
root 8.61177 15.5701 -11.217 6.41846 4.43605 5.45266
lowerback -4.23596 -4.87252 -7.54152
upperback 0.263866 -6.14801 1.20728
thorax 3.57599 -3.21185 4.97146
lowerneck -21.3252 -1.79718 -11.4915
upperneck 19.1156 -1.70724 12.3278
head 9.77916 -0.213151 6.07605
rclavicle 1.29707e-014 -5.56597e-015
rhumerus -50.8895 -0.0520063 -72.879
rradius 24.5224
rwrist -9.9926
rhand -27.3168 -26.3753
rfingers 7.12502
rthumb -0.726096 -56.3538
lclavicle 1.29707e-014 -5.56597e-015
lhumerus -17.6959 -20.1642 86.1918
lradius 40.5306
lwrist 8.48696
lhand -12.0402 -27.9075
lfingers 7.12502
lthumb 14.0183 1.59979
rfemur -48.4023 0.639307 15.3379
rtibia 48.6611
rfoot -6.3574 1.01278
rtoes -12.499
lfemur 25.5793 7.62668 -20.802
ltibia 11.4372
lfoot 4.36187 2.88846
ltoes -19.0592
117
root 8.58043 15.5959 -10.986 6.1303 4.3946 4.86561
lowerback -4.02213 -4.77045 -6.99525
upperback 0.234413 -6.05839 1.25943
thorax 3.3593 -3.15069 4.7531
lowerneck -21.106 -1.78061 -11.3507
upperneck 19.0942 -1.76986 12.402
head 9.73978 -0.2289 6.06574
rclavicle -3.05134e-014 7.95139e-015
rhumerus -50.6086 -0.679016 -72.7529
rradius 24.3433
rwrist -8.98043
rhand -28.1273 -24.3719
rfingers 7.12502
rthumb -1.50884 -54.3463
lclavicle -3.05134e-014 7.95139e-015
lhumerus -18.6861 -19.5663 86.7001
lradius 39.994
lwrist 7.91502
lhand -12.1011 -28.2077
lfingers 7.12502
lthumb 13.9596 1.30367
rfemur -47.4673 0.910644 16.2349
rtibia 49.2104
rfoot -7.35895 1.03785
rtoes -11.3774
lfemur 22.966 8.43399 -19.5121
ltibia 17.9296
lfoot 4.92946 2.96115
ltoes -16.4721
118
root 8.55176 15.6375 -10.7528 6.11741 4.50119 3.80993
lowerback -3.98983 -4.7882 -6.07094
upperback 0.0493082 -6.14407 1.63074
thorax 3.10236 -3.17052 4.63154
lowerneck -20.8957 -1.67692 -11.5213
upperneck 19.1336 -1.61849 12.5037
head 9.69552 -0.165723 6.15181
rclavicle -3.67752e-015 1.19271e-014
rhumerus -50.4407 -0.374224 -73.0077
rradius 24.6248
rwrist -8.83926
rhand -28.2135 -23.6101
rfingers 7.12502
rthumb -1.59208 -53.5839
lclavicle -3.67752e-015 1.19271e-014
lhumerus -19.7309 -19.1005 87.2662
lradius 39.5296
lwrist 7.76908
lhand -12.0565 -28.022
lfingers 7.12502
lthumb 14.0026 1.48643
rfemur -46.5726 1.18098 17.5989
rtibia 49.4554
rfoot -8.43724 1.11142
rtoes -9.96676
lfemur 20.3674 8.88263 -17.8835
ltibia 23.2995
lfoot 6.43585 3.27265
ltoes -15.8664
119
root 8.53262 15.677 -10.5163 6.07332 4.52074 2.5299
lowerback -4.08994 -4.7678 -4.9512
upperback -0.0180008 -6.18066 2.14554
thorax 3.03101 -3.17424 4.53685
lowerneck -21.1185 -1.63998 -11.7393
upperneck 19.4026 -1.50491 12.56
head 9.81653 -0.119104 6.24302
rclavicle -2.32578e-014 2.42517e-014
rhumerus -49.966 0.134836 -73.2927
rradius 24.999
rwrist -9.36889
rhand -28.1799 -23.4773
rfingers 7.12502
rthumb -1.55967 -53.4513
lclavicle -2.32578e-014 2.42517e-014
lhumerus -20.6272 -18.2518 87.9714
lradius 39.0207
lwrist 7.40309
lhand -11.8433 -27.823
lfingers 7.12502
lthumb 14.208 1.67112
rfemur -45.549 1.46277 19.2182
rtibia 49.4541
rfoot -9.47251 1.13357
rtoes -10.267
lfemur 18.0334 9.1495 -16.2517
ltibia 28.3351
lfoot 7.74645 3.95994
ltoes -15.1373
